<?xml version="1.0" encoding="UTF-8" standalone="no"?>
<svg
   xmlns:dc="http://purl.org/dc/elements/1.1/"
   xmlns:cc="http://creativecommons.org/ns#"
   xmlns:rdf="http://www.w3.org/1999/02/22-rdf-syntax-ns#"
   xmlns:svg="http://www.w3.org/2000/svg"
   xmlns="http://www.w3.org/2000/svg"
   xmlns:sodipodi="http://sodipodi.sourceforge.net/DTD/sodipodi-0.dtd"
   xmlns:inkscape="http://www.inkscape.org/namespaces/inkscape"
   sodipodi:docname="disegno.svg"
   inkscape:version="1.0 (4035a4fb49, 2020-05-01)"
   width="349.0px"
   height="349.0px"
   viewBox="0 0 349.0 349.0"
   version="1.1"
   id="SVGRoot">
  <defs
     id="defs652" />
  <sodipodi:namedview
     inkscape:window-maximized="0"
     inkscape:window-y="0"
     inkscape:window-x="192"
     inkscape:window-height="1078"
     inkscape:window-width="1615"
     showgrid="true"
     inkscape:document-rotation="0"
     inkscape:current-layer="layer1"
     inkscape:document-units="px"
     inkscape:cy="191.78597"
     inkscape:cx="398.23377"
     inkscape:zoom="1.4"
     inkscape:pageshadow="2"
     inkscape:pageopacity="0.0"
     borderopacity="1.0"
     bordercolor="#666666"
     pagecolor="#ffffff"
     id="base">
    <inkscape:grid
       type="xygrid"
       id="grid661" />
  </sodipodi:namedview>
  <metadata
     id="metadata655">
    <rdf:RDF>
      <cc:Work
         rdf:about="">
        <dc:format>image/svg+xml</dc:format>
        <dc:type
           rdf:resource="http://purl.org/dc/dcmitype/StillImage" />
        <dc:title></dc:title>
      </cc:Work>
    </rdf:RDF>
  </metadata>
  <g
     id="layer1"
     inkscape:groupmode="layer"
     inkscape:label="Livello 1">
    <g
       id="g250"
       transform="matrix(1.9808497,0,0,-1.9808497,36.299484,232.20358)">
      <path
         d="m 0,0 c -5.251,-3.032 -7.051,-9.747 -4.019,-14.999 3.033,-5.251 9.748,-7.051 14.999,-4.019 5.251,3.033 7.051,9.747 4.019,14.999 C 11.967,1.233 5.252,3.032 0,0"
         style="fill:#ff3c1f;fill-opacity:1;fill-rule:nonzero;stroke:none"
         id="path252" />
    </g>
    <g
       id="g254"
       transform="matrix(1.9808497,0,0,-1.9808497,313.62022,232.20358)">
      <path
         d="m 0,0 c -5.252,3.032 -11.967,1.233 -14.999,-4.019 -3.032,-5.252 -1.232,-11.966 4.019,-14.999 5.251,-3.032 11.966,-1.232 14.999,4.019 C 7.051,-9.747 5.251,-3.032 0,0"
         style="fill:#ff3c1f;fill-opacity:1;fill-rule:nonzero;stroke:none"
         id="path256" />
    </g>
    <g
       id="g258"
       transform="matrix(1.9808497,0,0,-1.9808497,36.299484,122.32049)">
      <path
         d="M 0,0 C 5.252,-3.032 11.967,-1.233 14.999,4.019 18.031,9.271 16.231,15.985 10.98,19.018 5.729,22.05 -0.986,20.25 -4.019,14.999 -7.051,9.747 -5.251,3.032 0,0"
         style="fill:#ff3c1f;fill-opacity:1;fill-rule:nonzero;stroke:none"
         id="path260" />
    </g>
    <g
       id="g262"
       transform="matrix(1.9808497,0,0,-1.9808497,313.62022,122.32049)">
      <path
         d="M 0,0 C 5.251,3.032 7.051,9.747 4.019,14.999 0.986,20.25 -5.729,22.05 -10.98,19.018 -16.231,15.985 -18.031,9.271 -14.999,4.019 -11.967,-1.233 -5.252,-3.032 0,0"
         style="fill:#ff3c1f;fill-opacity:1;fill-rule:nonzero;stroke:none"
         id="path264" />
    </g>
    <g
       id="g266"
       transform="matrix(1.9808497,0,0,-1.9808497,174.96074,51.457736)">
      <path
         d="M 0,0 C 6.063,0 10.979,4.916 10.979,10.98 10.979,17.044 6.063,21.959 0,21.959 -6.064,21.959 -10.98,17.044 -10.98,10.98 -10.98,4.916 -6.064,0 0,0"
         style="fill:#ff3c1f;fill-opacity:1;fill-rule:nonzero;stroke:none"
         id="path268" />
    </g>
    <g
       id="g270"
       transform="matrix(1.9808497,0,0,-1.9808497,260,200)">
      <path
         d="m 0,0 c -3.467,-1.865 -6.476,-4.687 -8.589,-8.348 -2.114,-3.663 -3.054,-7.682 -2.934,-11.619 l 0.011,-0.361 0.487,-13.952 0.353,-10.116 -8.585,5.364 -11.838,7.397 -0.311,0.195 c -3.349,2.07 -7.297,3.264 -11.525,3.264 -4.229,0 -8.179,-1.196 -11.53,-3.267 l -0.307,-0.192 -11.839,-7.397 -8.583,-5.364 0.353,10.117 0.486,13.95 0.013,0.368 c 0.118,3.935 -0.821,7.951 -2.935,11.612 -2.115,3.663 -5.125,6.486 -8.595,8.351 l -0.319,0.17 -12.326,6.556 -8.937,4.751 8.938,4.752 12.325,6.554 0.325,0.173 c 3.466,1.865 6.475,4.687 8.589,8.348 2.114,3.663 3.053,7.682 2.935,11.619 l -0.013,0.361 -0.486,13.952 -0.353,10.116 8.585,-5.364 11.837,-7.397 0.312,-0.195 c 3.349,-2.07 7.297,-3.264 11.524,-3.264 4.23,0 8.18,1.196 11.531,3.267 l 0.306,0.192 11.84,7.397 8.583,5.364 -0.352,-10.117 -0.488,-13.95 -0.012,-0.368 c -0.119,-3.935 0.821,-7.951 2.935,-11.612 2.114,-3.663 5.125,-6.486 8.595,-8.351 L 0.324,22.786 12.65,16.23 21.588,11.479 12.649,6.727 0.325,0.173 Z m 6.232,-40.889 -0.853,24.474 -0.021,-0.01 0.021,0.034 0.001,-0.022 21.625,11.498 3.063,1.628 9.646,5.13 -8.343,4.434 -9.781,5.202 9.776,5.199 8.346,4.438 -9.628,5.118 -3.081,1.638 L 5.38,39.37 5.379,39.347 l -0.02,0.035 0.02,-0.011 0.855,24.478 0.121,3.466 0.381,10.919 -8.011,-5.008 -9.396,-5.871 0.386,11.067 0.329,9.446 -9.246,-5.778 -2.959,-1.85 -20.769,-12.977 0.02,-0.012 h -0.04 l 0.018,0.012 -20.77,12.979 -2.942,1.839 -9.264,5.789 0.331,-9.443 0.386,-11.072 -9.392,5.868 -8.016,5.008 0.382,-10.897 0.122,-3.487 0.854,-24.474 0.02,0.01 -0.02,-0.034 -0.001,0.022 -21.625,-11.498 -3.064,-1.628 -9.645,-5.13 8.343,-4.434 9.781,-5.202 -9.777,-5.199 -8.345,-4.438 9.628,-5.118 3.081,-1.638 21.623,-11.498 0.001,0.023 0.019,-0.035 -0.019,0.011 -0.856,-24.477 -0.121,-3.467 -0.381,-10.919 8.012,5.008 9.396,5.871 -0.386,-11.067 -0.329,-9.446 9.246,5.778 2.959,1.85 20.768,12.977 -0.019,0.012 h 0.04 l -0.019,-0.012 20.771,-12.979 2.941,-1.839 9.265,-5.789 -0.33,9.443 -0.387,11.072 9.392,-5.868 8.015,-5.008 -0.382,10.897 z"
         style="fill:#ff3c1f;fill-opacity:1;fill-rule:nonzero;stroke:none"
         id="path272" />
    </g>
    <g
       id="g274"
       transform="matrix(1.9808497,0,0,-1.9808497,174.96074,220.76133)">
      <path
         d="m 0,0 c -12.129,0 -21.96,9.832 -21.96,21.96 0,12.128 9.831,21.96 21.96,21.96 12.128,0 21.959,-9.832 21.959,-21.96 C 21.959,9.832 12.128,0 0,0 M -17.875,52.92 C -34.946,43.064 -40.816,21.157 -30.96,4.086 c 4.774,-8.269 12.483,-14.184 21.706,-16.655 3.08,-0.826 6.205,-1.234 9.311,-1.234 6.194,0 12.308,1.625 17.816,4.804 8.27,4.775 14.185,12.484 16.656,21.707 2.471,9.224 1.203,18.857 -3.571,27.127 -9.856,17.071 -31.763,22.94 -48.833,13.085"
         style="fill:#ff3c1f;fill-opacity:1;fill-rule:nonzero;stroke:none"
         id="path276" />
    </g>
    <g
       id="g278"
       transform="matrix(1.9808497,0,0,-1.9808497,174.96074,303.06625)">
      <path
         d="m 0,0 c -6.064,0 -10.98,-4.916 -10.98,-10.98 0,-6.064 4.916,-10.979 10.98,-10.979 6.063,0 10.979,4.915 10.979,10.979 C 10.979,-4.916 6.063,0 0,0"
         style="fill:#ff3c1f;fill-opacity:1;fill-rule:nonzero;stroke:none"
         id="path280" />
    </g>
  </g>
</svg>
